<?xml version="1.0" encoding="UTF-8"?>
<svg id="Layer_2" data-name="Layer 2" xmlns="http://www.w3.org/2000/svg" viewBox="0 0 706.28 167.17">
  <defs>
    <style>
      .cls-1 {
        fill: #221059;
      }

      .cls-1, .cls-2 {
        stroke-width: 0px;
      }

      .cls-2 {
        fill: #fba01d;
      }
    </style>
  </defs>
  <g id="Layer_1-2" data-name="Layer 1">
    <g>
      <g>
        <polygon class="cls-1" points="104.38 167.17 193.03 167.17 96.52 0 52.19 76.77 104.38 167.17"/>
        <polygon class="cls-1" points="40.56 96.92 0 167.17 81.12 167.17 40.56 96.92"/>
        <polygon class="cls-2" points="47.36 85.2 94.68 167.17 104.38 167.17 52.21 76.8 47.36 85.2"/>
      </g>
      <g>
        <path class="cls-1" d="M316.76,113.8c4.68-7.02,7.02-15.39,7.02-25.11s-2.34-18.15-7.02-25.29c-4.68-7.14-11.31-12.63-19.89-16.47-8.58-3.84-18.75-5.76-30.51-5.76h-60.66v126h42.48v-31.68h11.57l21.37,31.68h45.36l-26.44-38.75c7.06-3.61,12.64-8.49,16.72-14.62ZM276.71,77.89c2.82,2.64,4.23,6.24,4.23,10.8s-1.41,8.16-4.23,10.8c-2.82,2.64-7.17,3.96-13.05,3.96h-15.48v-29.52h15.48c5.88,0,10.23,1.32,13.05,3.96Z"/>
        <polygon class="cls-1" points="381.56 118.57 434.84 118.57 434.84 87.97 381.56 87.97 381.56 73.21 442.22 73.21 442.22 41.17 339.8 41.17 339.8 167.17 444.56 167.17 444.56 135.13 381.56 135.13 381.56 118.57"/>
        <polygon class="cls-1" points="502.7 118.57 555.98 118.57 555.98 87.97 502.7 87.97 502.7 73.21 563.36 73.21 563.36 41.17 460.94 41.17 460.94 167.17 565.7 167.17 565.7 135.13 502.7 135.13 502.7 118.57"/>
        <path class="cls-1" d="M700.43,113.62c-3.9-5.22-9.42-9.21-16.56-11.97-.3-.12-.62-.22-.93-.33,5.11-2.68,9.15-6.08,12.09-10.2,3.54-4.98,5.31-10.65,5.31-17.01,0-9.6-4.14-17.49-12.42-23.67-8.28-6.18-21.12-9.27-38.52-9.27h-67.32v126h70.92c17.4,0,30.63-3.06,39.69-9.18,9.06-6.12,13.59-14.64,13.59-25.56,0-7.32-1.95-13.59-5.85-18.81ZM643.64,70.87c4.8,0,8.31.78,10.53,2.34,2.22,1.56,3.33,3.9,3.33,7.02s-1.11,5.31-3.33,6.93c-2.22,1.62-5.73,2.43-10.53,2.43h-19.8v-18.72h19.8ZM659.93,134.95c-2.34,1.68-5.85,2.52-10.53,2.52h-25.56v-19.8h25.56c4.68,0,8.19.84,10.53,2.52,2.34,1.68,3.51,4.14,3.51,7.38s-1.17,5.7-3.51,7.38Z"/>
      </g>
    </g>
  </g>
</svg>